<svg xmlns="http://www.w3.org/2000/svg" viewBox="0 0 64 64" width="64" height="64">
  <!-- Document background -->
  <rect x="12" y="8" width="36" height="48" rx="2" fill="#ffffff" stroke="#d1d5db" stroke-width="1"/>
  
  <!-- Folded corner -->
  <path d="M40 8 L40 16 L48 16 Z" fill="#f3f4f6" stroke="#d1d5db" stroke-width="1"/>
  
  <!-- Red header bar (PDF style) -->
  <rect x="12" y="8" width="36" height="12" rx="2" fill="#dc2626"/>
  <rect x="12" y="16" width="28" height="4" fill="#dc2626"/>
  
  <!-- PDF text in white -->
  <text x="30" y="17" font-family="Arial, sans-serif" font-size="8" font-weight="bold" text-anchor="middle" fill="#ffffff">PDF</text>
  
  <!-- Document content lines -->
  <rect x="16" y="24" width="24" height="1.5" fill="#9ca3af" rx="0.5"/>
  <rect x="16" y="28" width="28" height="1.5" fill="#9ca3af" rx="0.5"/>
  <rect x="16" y="32" width="20" height="1.5" fill="#9ca3af" rx="0.5"/>
  <rect x="16" y="36" width="26" height="1.5" fill="#9ca3af" rx="0.5"/>
  <rect x="16" y="40" width="18" height="1.5" fill="#9ca3af" rx="0.5"/>
  <rect x="16" y="44" width="22" height="1.5" fill="#9ca3af" rx="0.5"/>
  <rect x="16" y="48" width="16" height="1.5" fill="#9ca3af" rx="0.5"/>
  
  <!-- Small analysis/search icon in corner -->
  <circle cx="42" cy="46" r="3" fill="none" stroke="#fbbf24" stroke-width="1.5"/>
  <line x1="44" y1="48" x2="46" y2="50" stroke="#fbbf24" stroke-width="1.5" stroke-linecap="round"/>
</svg>